<?xml version="1.0" encoding="UTF-8"?>
<svg version="1.1" viewBox="0 0 300 180" xmlns="http://www.w3.org/2000/svg">
<defs>
<clipPath id="z">
<path d="m0 0h612v836.37h-612z"/>
</clipPath>
<clipPath id="y">
<path d="m0 0h612v836.37h-612z"/>
</clipPath>
<clipPath id="x">
<path d="m0 0h612v836.37h-612z"/>
</clipPath>
<clipPath id="w">
<path d="m0 0h612v836.37h-612z"/>
</clipPath>
<clipPath id="v">
<path d="m0 0h612v836.37h-612z"/>
</clipPath>
<clipPath id="u">
<path d="m0 0h612v836.37h-612z"/>
</clipPath>
<clipPath id="t">
<path d="m0 0h612v836.37h-612z"/>
</clipPath>
<clipPath id="s">
<path d="m0 0h612v836.37h-612z"/>
</clipPath>
<clipPath id="r">
<path d="m0 0h612v836.37h-612z"/>
</clipPath>
<clipPath id="q">
<path d="m0 0h612v836.37h-612z"/>
</clipPath>
<clipPath id="p">
<path d="m0 0h612v836.37h-612z"/>
</clipPath>
<clipPath id="o">
<path d="m0 0h612v836.37h-612z"/>
</clipPath>
<clipPath id="n">
<path d="m0 0h612v836.37h-612z"/>
</clipPath>
<clipPath id="m">
<path d="m0 0h612v836.37h-612z"/>
</clipPath>
<clipPath id="l">
<path d="m0 0h612v836.37h-612z"/>
</clipPath>
<clipPath id="k">
<path d="m0 0h612v836.37h-612z"/>
</clipPath>
<clipPath id="j">
<path d="m0 0h612v836.37h-612z"/>
</clipPath>
<clipPath id="i">
<path d="m0 0h612v836.37h-612z"/>
</clipPath>
<clipPath id="h">
<path d="m0 0h612v836.37h-612z"/>
</clipPath>
<clipPath id="g">
<path d="m0 0h612v836.37h-612z"/>
</clipPath>
<clipPath id="f">
<path d="m0 0h612v836.37h-612z"/>
</clipPath>
<clipPath id="e">
<path d="m0 0h612v836.37h-612z"/>
</clipPath>
<clipPath id="d">
<path d="m0 0h612v836.37h-612z"/>
</clipPath>
<clipPath id="c">
<path d="m0 0h612v836.37h-612z"/>
</clipPath>
<clipPath id="b">
<path d="m0 0h612v836.37h-612z"/>
</clipPath>
<clipPath id="a">
<path d="m0 0h612v836.37h-612z"/>
</clipPath>
</defs>
<g transform="matrix(1.3333 0 0 -1.3333 -5224.3 870.43)"></g>
<g transform="matrix(1.3333 0 0 -1.3333 -4388.3 882.9)"></g>
<g transform="matrix(1.3333 0 0 -1.3333 -3552.3 882.9)"></g>
<g transform="matrix(1.3333 0 0 -1.3333 -2716.3 882.9)"></g>
<g transform="matrix(1.3333 0 0 -1.3333 -1880.3 882.9)"></g>
<g transform="matrix(1.3333 0 0 -1.3333 -1044.3 882.9)"></g>
<g transform="matrix(1.3333 0 0 -1.3333 -208.28 882.9)">
<g transform="translate(60,-4.5)">
<g>
<text transform="scale(1,-1)" x="153.51991" y="-566.75409" fill="#000000" fill-opacity="0" font-size="52.264px" stroke-width=".90111" xml:space="preserve"><tspan x="153.51991 181.36111 210.45668 239.55223" y="-566.75409" stroke-width=".90111">FEET</tspan></text>
<path d="m200.21 554.16c-13.009 7.8934 13.131 20.578 9.6593 3.8512-7.9894-12.938-21.127 3.5782-15.143 13.206 8.5288 3.092 3.7219-15.505 2.2161-5.7195 1.3362-4.1799 11.631-12.25 1.6135-12.769-5.9304 2.5083 1.7066 7.7841 3.3867 8.4296 3.2652-3.8882 11.479-7.1667 2.4168-9.7682-5.339-9.2521 14.926-11.597 8.3233-0.9157-4.8584 5.2918-12.841-6.7518-10.261 3.5223 0.57889 8.1309-1.5039 27.97 11.245 24.685 7.2475-4.8566 4.6746-17.889 2.8192-22.623-3.301 4.3975-12.193-4.7448-8.2714 5.2482 0.85576 5.6341-3.0196 18.846 4.5309 10.632 5.6874 1.1704 9.0108 3.3692 7.1754-4.3288 2.6933-8.3661-1.6535-9.947-8.6715-8.366 4.0017 9.3834-3.3044 22.653 6.1184 29.58 13.342 1.0476 6.9025-16.989 9.8246-24.933-1.0233-4.6622-7.6843 3.1151-10.787-1.6779 3.4681 9.0906-3.7469 25.061 8.5309 28.617 12.765-1.84 3.0062-18.597 6.1376-26.817 1.2198-4.6462-5.7121 2.2737-9.37 0.17668-0.35211 6.6756-2.3984 20.362 6.7373 15.091 8.0792 6.0326 1.5482-13.76 1.8327-13.818-3.5328 2.9258-12.97-3.4275-9.2303 5.4512-2.1602 10.112 4.96-0.0297 10.173 1.6192-5.0406-5.3861-3.2684-20.784-11.918-11.434-1.3341 6.5725 7.2491 16.172 7.084 24.996-0.50014 6.1868 3.252-6.8653 9.2575-3.2371 4.3802-0.64802 0.0874-10.968 0.69934-15.429-5.5572 2.6291-12.515 2.2455-7.1152 10.203-0.24477 8.2013 2.1017 29.004 14.165 19.326 3.4086-8.6908 0.81299-21.396-0.30374-28.827-3.3229 4.3461-13.617-1.7211-8.5617 7.9015 1.2808 3.3483 0.3833 21.024 2.2455 12.779-5.5542 14.655 20.628 9.0581 12.105-3.66-1.83-9.0633 1.3119-26.55-11.095-27.73-12.467 3.6978-5.7797 18.093-6.6966 27.361 0.48297 7.0638-1.0916 6.2567 4.5686 2.5451 5.4346-0.0785 10.665 4.1552 7.7176-4.0197-1.3349-9.036-2.541-30.278-16.114-25.216-8.6118 8.0277-2.4927 20.814-1.6411 30.748 3.828 13.725 20.724 2.7816 13.628-7.8836-3.4595-11.242-6.0356-24.028-15.253-32.092-11.53-5.0948-15.894 10.407-9.996 18.166 3.256 6.9357 6.8021 23.699 17.35 17.324 6.3845-7.3677 3.5168-19.178 0.47779-27.485-7.662-9.4115-17.474 4.0173-14.094 12.424 0.84115 8.2109-0.12828 24.378 12.2 22.611 10.127-5.9973 3.8976-19.8 4.4792-29.466 1.3621-14.087-18.541-13.382-17.763 0.0453 1.7787 9.1538-3.1693 26.13 12.113 22.351 5.8377-5.4206 0.61054-18.11 0.69307-26.42-2.7523-14.935-19.904-3.5313-16.51 7.5038 1.1355 4.5393-3.5799 21.471 2.4363 15.183 6.2389 3.1855 14.06 3.561 10.705-5.9391-1.2307-9.1367 2.477-26.152-9.5438-28.408-11.982 1.231-9.7656 15.312-10.141 23.908-3.0398 11.31 12.135 20.947 15.449 6.7586-0.5035-8.859 0.29171-18.039-1.1004-26.901-4.5712-13.129-20.616-1.003-16.412 9.4684-1.0116 5.4895-0.68183 14.325 5.3755 7.6642 5.8084 2.8303 9.5265 3.5516 6.5172-3.9678-1.5119-8.0186 3.8634-27.114-9.9133-24.207-13.364 4.3243-1.0822 23.89 8.7295 14.085 8.7364-13.422-14.533-15.827-19.714-5.1187-11.236 3.5708-10.348 24.558 3.3065 19.704 10.087-1.7953 22.662-15.224 11.132-23.534-13.503-5.7221-27.394 10.261-25.046 23.391 2.0945 17.212 27.106 9.2388 26.789-5.163 2.0065-14.088-18.95-15.714-23.329-4.1457-6.4175 8.0174-4.9206 26.438 8.1681 25.286 8.6182-1.0916 12.765-15.687 10.48-19.954-5.6986 7.7084-15.915-6.3199-6.617-9.8697m39.794 43.944c9.4171 6.4048 9.3327-14.27 7.0987-10.622 3.626 1.5365-2.2651-12.261-0.96207-16.554 1.446-8.1764-6.5765 1.0308-11.441-1.153 1.5948 5.6407-0.73475 23.801 8.3278 14.109 10.62 4.4635-2.0518-9.979-1.5837-16.279 1.0313-7.6734-4.6892 2.5421-10.029 0.70851 2.9506 8.25 4.9759 18.143 10.839 25.36 11.805 6.8854 13.377-11.797 10.432-19.253-0.37072-5.8378-14.891-2.0461-8.3521 4.8245 2.046 8.2611-3.049 24.845 9.5007 25.43 11.125-4.0717 2.9677-16.778 5.5318-25.258 2.5064-7.4243-5.1428 1.0235-9.3168-4.393-3.1965 4.0391-2.8551 16.444-0.58777 23.001 9.4974 10.266 15.365-9.147 12.157-16.799 4.694-9.7914-6.5722-25.452-13.187-11.563 0.36256 7.8206-2.7978 18.712 1.8711 24.952 12.871 4.32 11.719-8.4684 11.699-17.206 3.7989-11.468-13.059-19.377-15.701-5.6311 0.30382 8.38-6.0716 30.992 8.8539 22.446 2.0135-3.5578-2.8879-3.0454 2.8183 0.0823 1.4441-7.5344 0.0555-22.005-4.6352-30.737-9.0998-10.975-19.21 6.8127-13.977 15.608-0.39589 4.9202 0.76255 9.3083 4.638 3.5652 13.648 3.8179 0.48345-11.388 0.34192-18.123-0.98517-11.795-17.741-12.824-17.441-0.1033 1.9344 10.661 6.0588 20.951 11.205 30.521 11.266 8.0716 16.233-9.5775 11.159-17.396-0.40436-7.5793-1.566-24.615-12.96-19.852-8.6001 7.0533-1.9479 18.694-2.0028 27.886 1.3211 4.093 1.1954 10.483 5.7006 12.429m20.677-31.009c-8.4706-9.5162-15.518 6.1179-12.412 13.872 0.14946 12.092-1.8934 24.454-0.25465 36.375 8.4121 8.3702 15.895-4.9962 12.907-13.012 0.40385-11.994 1.341-24.014 0.43128-36.008l-0.67184-1.2273m-11.505 41.763c-9.0769 11.645 16.867 15.83 12.025 0.38111-0.0688-5.411-7.6117 6.6719-11.163-1.0608-2.5566-3.489-3.0858 13.856 3.5474 7.5176 11.351 3.7945-11.686 2.2337-4.3675 4.4367 5.4588-0.98564 3.5346-7.234 0.45433-1.5589-4.2074-0.0714-13.346 0.30729-6.5698 4.9775 6.4996-1.9812 2.8422-17.194-3.7563-12.388-7.406-4.7108-4.9326 17.155 3.1216 12.611-4.4013-7.467 3.3428-22.499-8.8466-19.357-5.7209 3.0922 0.9735 17.535-3.6924 24.734-2.7034-0.55288 12.297 2.0761 7.7562-3.628-2.2202 6.4236-15.047 1.5365-9.8859 10.986 7.1978 2.3466 4.4577-5.5496-0.6559-1.0683-7.8141-4.7538 0.68305 14.273 2.9506 3.9267 0.28594-2.7385-5.9285-8.6423-4.1889-2.1712-6.7545-5.5942 6.1693-22.259-3.9522-18.719 0.58461 3.6118 0.90757 15.967 4.0976 8.1213-5.0597-7.3675 1.9006-17.503-1.0195-23.573-6.309 3.3774-0.0213 15.477-2.4588 21.414 8.5536 0.0799-3.283-11.579-0.26854-17.497-0.56533-6.1013 1.9685-10.472-5.2232-7.3162-9.9498-2.6899-1.3927 14.073-5.3601 19.992-0.26161 5.4396-4.7487 8.3247 2.0271 5.1065 9.4023 1.0794-2.533-12.785 0.12791-18.766-1.3783-3.8463 1.2803-20.724-1.5536-11.197-9.2416-0.21846-13.146 1.9783-10.529 11.628 0.45836 10.27 0.555 20.553 0.4694 30.831-0.44742-8.4273 16.944-0.14716 9.6861-11.291-0.94006-4.2016-1.5704-16.11-1.3193-16.156-2.1715 5.0373-15.245 1.2132-8.2927 9.7242 0.3804 5.545-1.3008 22.973 6.6525 17.378-2.492-5.514 2.7258-19.716-5.3675-15.24-7.6541-2.0412-3.5841 9.3449-4.22 13.515 8.4595 0.0611 3.742-17.058-2.8217-10.239-9.6432-3.7046-3.1562 10.148-5.9855 14.961 8.3322-0.68582 7.352 3.0425-0.44687 2.7062-4.6139-7.6622-7.5054 10.845-1.3176 6.0088 7.3522 7.2125 7.164-3.9445 5.8486-8.626-5.6782-1.757-10.429 3.7442-3.7021 7.3909 6.557-5.9734-7.8098-3.4287-1.0357 1.6174 2.6851-3.6441 11.846-0.53452 6.986-8.2036-9.5968 1.0579-6.3654-8.4946 1.5869-9.8812-4.2784-6.2779-5.0457-23.925-16.328-16.556-3.2684 5.5714-6.3244 23.869 4.825 17.671 3.8841 1.5914-1.0308-19.705-2.5502-11.239-2.799 2.2462-16.008-3.1774-9.0712 1.5442 7.3827 2.89 4.8853-14.143 1.027-5.3238-4.0256 1.0027-13.092-4.1486-7.2834 2.2217 7.7962 2.2296 6.2418-11.899-0.13289-5.0913-4.2222-1.2715 3.0601 0.81834-2.5783-1.1607-3.5367-8.0693-6.5587 10.022 0.59425 4.5324 6.5135 7.0668 7.2522-2.2534 7.3502-7.0331-6.0943 9.3308-17.07-7.8887-4.1769-4.1232 8.7889 5.9991 1.5288-12.222 3.5428-17.205-0.70626-5.1725 1.2069-9.0518-1.6601-2.5537-5.4595 3.5856-14.049-3.4177-10.649 6.3459-2.3569 8.2629 4.2552 25.498 13.223 13.324 2.6447-9.0555-1.296-18.754-0.71245-28.218 1.5131-9.257-4.7202 6.6133-10.767-0.109-2.433-2.5989-2.0385 12.187 2.6119 3.636 10.289 3.9881 6.4402-4.8877 5.315-10.816 0.76464 10.282-16.631-0.59922-9.4957 8.9655 1.3614-9.4152 15.746 3.962 11.779-8.3446-3.8971 1.7938-13.657-1.8689-8.4672 7.1218 10.533 9.7825 17.474-9.7791 8.6377-16.173-10.665-9.3401-16.586 8.8921-14.055 17.314 0.33384 15.237 19.378 8.041 15.112-4.3982 1.5889-10.044-15.544-18.28-16.49-5.0851 0.54099 8.3497-0.23927 24.072 11.394 23.922 9.9996-4.7228 8.4364-22.217 0.13475-27.828-14.767-0.59465-7.8802 18.494-8.2063 27.664-1.7134 9.2845 3.0896 15.445 11.31 8.3784 4.5104-7.1979 3.5029-22.104-4.8629-26.614-13.02 1.5068-6.0353 18.495-7.3219 27.207-3.5604 9.0812 7.8099 23.589 14.646 11.459 6.4697-9.0844-7.8791-21.649-12.822-9.2408-1.7094 8.0521-9.1274 23.172 3.8486 25.093 10.281-1.0238 11.999-16.031 10.483-24.293-0.40651-4.0579-8.1866-5.8042-5.8805-5.2147-10.779-0.76295-12.211 13.705-9.5857 21.442 1.1229 10.509 16.89 12.521 19.085 1.527 3.7032-8.0205-1.3199-25.105-12.099-16.971-4.9587 7.6427-2.565 21.547 5.2676 26.797 12.937 4.6127 16.817-13.681 11.428-22.199-9.8887-8.4437-15.958 8.4348-10.656 15.862-0.42445 8.1874 6.3672 23.287 16.088 15.939 5.1992-5.0847 3.7377-16.804 2.1162-20.861-2.4688 8.15-16.676-4.3616-9.5034 7.5257 1.873 8.6959 16.6 23.825 21.204 9.1202 3.1017-3.8176-9.8373-16.883-16.624-7.9182-6.4229 7.9088-5.5121 23.59 3.8254 28.629 12.68 1.3052 14.344-15.911 8.413-23.767-8.4061-12.7-25.006 2.8731-20.192 14.421 2.2704 13.976 22.274 10.471 22.314-2.6105 2.4204-8.7977-4.3372-24.789-15.207-17.931-6.3774 8.0188-8.0534 22.253-2.339 30.583 11.219 5.5221 15.575-8.9946 15.827-17.508 3.7904-10.958-12.974-19.138-15.921-6.0854-3.5251 8.1016 5.104 20.854 13.687 13.941 9.2329-8.7657 7.6457-22.824 5.451-34.108-8.431-11.306-20.943 4.3365-13.816 13.951 0.3831 8.4474 8.5946 21.801 17.981 14.593 7.1007-8.0624 6.8822-21.871 3.5158-31.463-9.573-12.346-20.449 3.6617-16.539 14.351 0.87834 8.7249 0.44916 24.462 13.303 22.924 10.138-3.3778 9.0921-15.72 8.211-24.244-0.98643-8.5701-0.34277-19.365-7.0962-25.571-13.331-4.3716-13.684 12.904-11.077 21.435 0.34674 8.3497 3.474 29.578 15.576 20.14 6.1742-7.7523 0.51584-17.901 2.1131-26.952-0.50729-9.7828 0.20369-20.147-2.9266-29.44-9.2839-7.9414-16.549 6.3834-12.541 14.47 0.40149 11.983 1.9501 24.446 8.2888 34.888 11.007 8.1606 18.09-8.7608 17.149-17.796-0.38336-9.7073 5.1129-28.802-8.284-30.844-13.616 3.3604-8.1035 21.469-6.9946 31.484 0.31449 11.328 11.988 26.051 22.626 14.608 5.3452-10.586 3.957-23.798 0.99878-35.024-4.1129-13.799-23.576-5.2964-21.543 7.2426-2.1035 11.935-3.2079 30.16 9.308 36.541 10.481 2.62 16.037-9.7382 14.771-18.427 0.62699-9.0644-5.2041-22.383-16.274-17.03-9.5511 7.3149-11.169 22.058-7.9916 33.089 1.82 12.461 21.197 15.544 26.136 3.7448 6.0311-11.42-9.025-29.33-19.998-18.789-7.7298 9.2827-3.0746 27.53 9.388 29.949 12.334-0.11561 12.04-16.847 8.8359-25.334-3.2511-13.634-22-3.5357-18.013 7.588-1.4621 12.01 15.357 17.055 19.845 5.2007 4.5651-7.6747 5.1143-25.221-7.1944-24.809-11.56 2.2942-8.6002 20.999 1.0294 24.182 13.869 0.74089 12.709-19.043 12.763-28.769 4.408-10.78-8.6443-29.475-16.647-14.718-2.6264 9.5282-1.0341 19.899 0.97673 29.439 1.0828 14.901 21.614 9.0576 20.284-3.6507 0.22074-8.9227 0.9333-27.771-12.811-24.414-8.3371 5.3058-4.8096 17.201-3.4459 25.244 0.86093 11.228 18.012 16.434 20.77 3.4083 3.8085-8.5528-1.7004-27.376-13.322-18.905-6.1898 7.8755 0.73838 22.068 10.593 22.976 14.105-9.4e-4 14.128-24.779 0.5482-25.745-12.288 1.887-9.953 23.444 2.4815 22.742 10.545-2.7259 8.4973-16.637 7.1605-24.895-2.1972-13.383-19.376-2.6823-14.105 7.5501 1.2008 0.38329 0.69698-2.9992 1.7294-2.5512m-84.26-30.812c3.3011 10.694 14.955-5.4156 12.446-3.3003 4.2861-1.8692 13.882-8.2879 4.1997-11.127 0.46768-12-26.454 1.1945-16.032 10.196 8.0783 6.1217 15.13-5.8688 22.721-8.1584 9.2759-0.75081-2.6612-12.008-4.8421-4.056-9.6152 10.971-14.022 26.268-11.884 40.648 6.7065 12.827 19.595-2.5467 15.481-12.292 0.42163-5.5036 3.2978-10.849-3.6819-7.78-9.7502-2.3736-1.797 14.017-4.491 19.989-0.11446 6.265-0.65611 8.35 5.352 4.8073 6.3874 1.3317 7.9776 5.801 6.7218-2.9164-1.076-4.9405 2.8185-18.957 2.4066-17.566-5.1434 0.74458-11.27-1.2999-8.3942 6.6087 1.3313 6.2603-8.2556 23.408 1.7986 15.878 5.3792 0.64882 8.9215 5.8815 8.0089-2.5302-0.13298-7.1112 5.7688-21.634 4.7396-23.41-5.5995-0.7508-9.594-0.94417-7.0883 7.0192-0.0728 8.9975-7.4813 30.038 8.6914 25.956 7.5148-7.3786 4.8822-19.893 9.4218-29.011 3.9238-6.5918-5.6302-1.2323-9.4818-4.9586-0.33644 10.123-4.4587 20.401-3.2635 30.794 9.7355 12.274 18.946-7.5939 16.281-16.726 0.88974-6.4649 5.111-12.441-3.938-11.919-4.3518 1.2379-2.1825 13.59-5.4705 19.108-3.0262 6.6711 5.8908-1.9792 9.161 4.0318 1.5714-1.1014 7.874-19.973-3.7403-15.45-5.915 2.2135 2.3115 9.7238-0.77886 7.0913-9.4715 8.2515 8.4089 18.794 11.747 6.278 3.319-8.2407 2.8824-25.813-9.0208-25.72-11.012 2.6943-7.8879 16.659-9.9668 25.127-4.4665 10.861 10.026 19.282 14.791 7.3529 1.6059-11.684 7.2431-23.674 3.485-35.622-9.6644-11.729-21.169 5.9292-19.225 16.034-0.0296 5.6556-5.8191 16.547 3.1954 11.651 5.0277 2.8095 8.0389 5.0641 7.5129-2.5586 1.2225-9.1309 8.6638-31.235-6.8035-29.894-10.307 4.945-7.6912 17.862-11.29 26.913-4.1894 8.1898 0.94111 7.8596 1.7146 5.1121 4.9316-0.0589 11.087 7.1462 9.5051-2.3811-0.18338-9.6193 4.4555-23.493-4.5051-29.99-14.446-3.8965-14.779 15.007-17.541 24.27-2.7868 8.3193-5.3955 32.873 9.677 24.062 5.4807-10.089 5.9866-23.609 5.588-35.28 0.89744-14.84-20.24-10.818-18.658 1.8075-1.4368 10.531-5.6875 25.218 2.4778 33.372 14.015 2.1092 10.327-15.18 10.463-23.735-0.33032-9.0258 2.7003-28.454-11.82-25.778-9.5138 4.9322-5.2415 18.43-7.7817 27.218 2.8284-6.6566 15.564 4.3178 12.053-7.0294 0.11522-12.051 10.345-19.498 15.532-28.872 3.397-14.192-13.509-13.644-20.727-6.3183-8.0546 4.2266-17.285 8.8547-8.0618 17.691 6.7149 2.4558 21.459-2.1541 23.076-11.465-2.9852-13.001-18.084-5.4414-23.432 1.7613-4.4465 3.4161-9.3272 9.1663-6.3261 15.068" clip-path="url(#a)" fill="#f1c40f" fill-opacity=".4196" style="mix-blend-mode:lighten"/>
<path d="m237.83 615.45c11.033 2.0268 4.6251-16.613 1.8353-13.093 8.2166 8.6241 2.8983-10.85 4.8232-15.587 0.15816-9.6584 0.95121-19.448-0.1425-29.029-7.5332-11.683-21.908 6.1535-10.89 13.03 6.2058 6.344 15.04-7.4484 9.9295-6.584-4.0801 7.7063-14.687-6.3883-12.301 5.2609 1.4626 13.516-1.832 27.248-0.11397 40.773 0.94786 2.8736 3.6662 5.4623 6.8596 5.2287" clip-path="url(#b)" fill="#fea" fill-opacity=".4196" style="mix-blend-mode:lighten"/>
<path d="m241.73 608.06c-12.369-9.727-14.202 20.403-0.2396 9.8264 5.4593-8.6872 2.2212-20.084 2.9445-29.851-0.96095-4.96 0.90793-20.649-0.49806-18.479-3.1033 4.5744-15.984-3.4526-7.5461 2.9926 14.172 2.728 10.39-21.231-1.8398-12.452-8.0515 10.277-1.9864 24.253-3.4247 36.181 1.4945 4.6454-3.6181 21.629 2.2045 11.421 2.4463-1.8028 6.1836-1.8892 8.3993 0.36195z" clip-path="url(#c)" fill="#fea" fill-opacity=".4196" style="mix-blend-mode:lighten"/>
<path d="m196.95 610.08c6.5233-10.403-21.804-6.1658-6.0382-6.1976 9.1208 4.4507 0.46014-12.174 1.5569-17.348-1.3437-9.446-2.3746-18.996-1.8805-28.549-0.17332 10.496-20.935-2.3049-9.4258 7.1993 13.626 3.6711 11.538-19.655-0.77795-12.899-7.7401 6.6185-1.6947 17.754-2.5064 26.501 1.3961 11.431 3.0147 22.921 5.1861 34.19 2.9886 5.8516 13.41 3.6186 13.886-2.8959" clip-path="url(#d)" fill="#fea" fill-opacity=".4196" style="mix-blend-mode:lighten"/>
<path d="m190.2 616.17c-4.3381-0.25953-8.1842-3.9432-8.3911-8.3425-0.39011-4.6487 0.27848-9.3155-0.13453-13.972 0.15879-8.9653-2.085-17.771-2.0812-26.732-1.6048-3.1629-0.81404-7.092 1.6406-9.5756-0.0993-2.2517 4.7137-4.0454 6.8823-2.1934 2.8304 1.3271 3.456 4.4948 4.1757 7.1919 1.8431 5.6871 0.80399 11.723 1.7235 17.547 0.79602 7.6978 1.9348 15.5 0.73288 23.22 0.80781 3.709 0.3359 7.9055-1.662 11.172-0.66535 0.93596-1.712 1.6459-2.886 1.6837zm-9.5347-58.576c-0.69815 1.2816-1.942 4.1417-1.095 1.0491 0.21222-0.46875 0.5881-0.89441 1.095-1.0491zm2.7422 10.717c2.9106-0.16899-2.3203-1.0578 0 0z" clip-path="url(#e)" fill="#fea" fill-opacity=".4196" style="mix-blend-mode:lighten"/>
<path d="m186.31 617.25c11.209 10.005 16.751-17.081 1.4008-11.956-9.0001 7.7296 1.6297 14.998 7.4711 20.027 4.4571 7.6369 20.294 13.572 20.101 0.0995-5.0908-5.4843-10.372-8.9882-16.756-15.447-12.275-12.33-3.65 7.3819-12.216 7.2761" clip-path="url(#f)" fill="#fea" fill-opacity=".4196" style="mix-blend-mode:lighten"/>
<path d="m196.88 636.01c-8.9393-8.2072-14.03 17.851-3.1558 7.413 14.961 4.6902 11.408-18.022-1.3716-13.977-12.061 0.93241-18.746 19.925-6.7878 25.833 8.9513 5.0153 23.146-5.4852 15.807-15.049-1.1904-1.6937-2.7513-3.1098-4.4923-4.2205" clip-path="url(#g)" fill="#fea" fill-opacity=".4196" style="mix-blend-mode:lighten"/>
<path d="m189.9 661.31c11.289 4.1583 4.8237-16.778 2.7149-12.37 5.3167 7.0134 4.0916-5.3331-2.2788-1.2014-4.7984-3.7965 5.1571 2.3489 5.9638-4.1402 13.376-3.3441 2.2265-20.365-7.4564-12.114-9.3455 4.7866-14.367 23.704-1.586 27.092 11.503 2.5792 21.083-14.643 10.681-21.77-10.223-6.2647-18.476 9.1329-15.705 17.873 0.86868 3.445 3.4792 7.5017 7.6665 6.6319" clip-path="url(#h)" fill="#fea" fill-opacity=".4196" style="mix-blend-mode:lighten"/>
<path d="m228.21 648.64c15.365-3.3322-5.7028-24.231-8.6974-7.8986 0.43097-8.4787 3.06-0.74508 3.7724-0.10339 10.369-11.55-12.212-16.858-14.264-3.8138-5.0694 11.399 9.3113 21.935 19.532 16.675 13.964-6.6714 7.2725-33.005-8.6526-31.113-14.652 1.4083-19.758 25.278-5.0504 30.531 5.8611 5.0732 19.025-5.1674 15.505-5.8641 0.66237 0.37702-6.2285 2.2097-2.1461 1.5879" clip-path="url(#i)" fill="#fea" fill-opacity=".4196" style="mix-blend-mode:lighten"/>
<path d="m238.2 639.35c-0.72767-10.917-16.752 0.34572-12.68 0.92472-2.4398-7.3641 3.6204-14.391 5.2569-3.8818-1.8194 7.9595-2.2282-6.6464-3.8423 3.2666-2.4704 4.4144-1.034-6.3001-2.192-1.1695 13.343-8.8764-10.694-20.544-11.996-5.5079-4.3693 10.473 4.8932 26.314 17.237 20.882 12.849-3.9457 16.3-25.285 2.7039-30.411-13.707-4.7271-25.169 17.346-12.969 25.629 9.8794 7.9764 28.251 0.22703 24.427-13.685 0.37169-13.031-15.895-27.365-26.833-15.526-9.3579 8.7678-7.3181 29.093 7.0441 31.013 6.6512 0.90685 15.307-3.8371 13.841-11.534" clip-path="url(#j)" fill="#fea" fill-opacity=".4196" style="mix-blend-mode:lighten"/>
<path d="m231.81 651.42c13.984 0.51405 5.1114-20.815-6.3063-14.799 2.603 2.5051-0.29559 11.495 5.6597 5.0505 6.3411-11.336-14.612-16.278-16.592-3.9682-2.0961 11.577 9.1489 12.3 17.238 13.717z" clip-path="url(#k)" fill="#fea" fill-opacity=".4196" style="mix-blend-mode:lighten"/>
<path d="m221.05 637.14c2.9667 12.156 18.572 1.1736 14.746-7.7368 2.7555-12.599 6.812-26.172 5.6894-38.822-7.73-12.222-21.323 8.9649-6.1086 9.5706 3.8624-0.22302 7.4319-4.0702 2.1122 0.028-6.3754 0.33877-10.652-9.6726-10.03 1.8101-0.30288 12.054-6.4258 23.357-6.4092 35.15" clip-path="url(#l)" fill="#fea" fill-opacity=".4196" style="mix-blend-mode:lighten"/>
<path d="m229.99 608.94c1.1816 13.26 20.241 2.582 13.889-7.2101-3e-3 -6.2858 5.5161-18.978-4.5495-15.993-3.7079-2.93-7.4616-5.8299-2.7158-0.2748 11.767 5.6648 15.667-16.236 1.8279-12.045-9.7044 5.2046-5.8344 17.419-7.7516 26.238-0.30675 3.0886-0.59282 6.1817-0.70055 9.2848" clip-path="url(#m)" fill="#fea" fill-opacity=".4196" style="mix-blend-mode:lighten"/>
<path d="m238.25 604.14c-2.8177 0.33299-5.1411-2.3939-4.8232-5.1152-2e-3 -3.5053 1.885-7.5337 5.4183-8.61 2.0622-0.44184-2.808-0.6641-3.2923 0.628-1.8763 0.93851-1.024 5.4506-3.1778 5.0776-0.82282-4.1242 0.59485-8.3056 0.32945-12.47 0.0267-8.9755-1.6745-17.882-1.269-26.866 1.7466-2.6685 5.0833-5.8821 8.4685-3.9636 3.7712 2.4494 5.0501 7.1909 5.9093 11.356 0.73935 3.4222 0.12844 6.881-0.19142 10.3-0.36739 8.1633 2.2785 16.658-0.80684 24.55-1.1302 2.961-3.0817 5.3923-6.5651 5.1128z" clip-path="url(#n)" fill="#fea" fill-opacity=".4196" style="mix-blend-mode:lighten"/>
<path d="m261.04 615.86c8.5213-11.232-21.665-9.2964-5.418-7.1189 9.7992 6.3246 4.905-13.564 6.1104-18.721-3.1348-9.9899 3.2706-28.716-10.559-31.397-10.783 2.6933-5.9562 16.573-4.6686 24.318-1.2595 8.7862 10.524-4.6541 14.105 3.2138-2.0778-7.3172 1.1298-23.428-10.817-21.605-8.6958 6.5982-2.9102 19.436-2.9702 28.61-0.43031 14.978 21.204 10.831 14.581-2.0595-3.8288 8.2096-12.863 0.11935-12.806 0.17895 1.3933 5.5398 0.59614 21.66 3.499 20.059 3.5835-7.8331 13.831 3.1369 12.325 5e-3 0.50027-6.2658-3.7747 0.0133-8.1198-3.888-7.912-2.6702-6.9933 12.367-1.2746 3.6956 10.615-1.3361-6.9127-1.3648-6.3687 5.2625-5.5515 5.9963 9.6856 7.4778 0.98788 13.809-7.9778-0.98467-0.68057-15.613 3.0527-4.7693 0.48255 8.2888-12.832-2.3656-2.9929-4.7634 6.9236-3.8426 8.6221 15.335 8.0518 3.5451-4.0631-5.4995-2.8225-5.9661-10.085-4.8799-10.1 3.6834 6.6802 19.767-2.4993 8.87-1.7122-12.002-2.7864 8.9999 6.0246 5.299 14-0.18343 8.4339-22.418-4.1063-17.336-13.863 3.0047-6.0386 24.204 6.5054 17.341 12.563-5.6211 1.3689-21.76-9.1116-15.54-12.752 3.7587-0.0119 23.776 9.4492 14.605 3.0739-2.5795 10.186-11.789 1.409-9.0922 12.133 1.8352 13.17-22.06 2.0829-23.419-11.71 0.63543-8.9745 25.244 3.0633 20.861 8.6931-6.823 1.0207-18.945 1.7007-28.127 4.8664-12.302-17.46-14.676-13.758-1.6742-0.97032 10.029 5.0937-6.6671 10.594 0.62132 2.471 1.9975 0.1809-14.076-1.0745-18.612-6.8792-7.7693-16.464 0.53351-12.023 8.8161-3.3408 11.919 15 18.501 14.575 3.9299-2.0712-5.6043 0.38329-23.908-8.1229-13.424-3.6627-3.2204-9.4762-6.0982-5.8199 1.7801 1.2729 11.606 3.2302 23.451 0.06 34.908-2.7947 10.022 9.0997 17.851 14.416 6.6992" clip-path="url(#o)" fill="#afc785" fill-opacity=".4196" style="mix-blend-mode:lighten"/>
<path d="m211.93 620.6c-4.2677-0.53419-7.5229-4.1482-11.513-5.3142-4.0587-4.0915-8.2204-8.9329-8.186-15.051 0.79018-4.8958-0.0961-9.8209-0.55586-14.751-1.5467-6.2777-0.49265-12.788-1.3706-19.159-0.42246-4.4086-1.0663-8.8348 0.28406-13.155 0.56142-5.0344 6.3433-6.8216 9.1728-8.5033 2.0661-3.7151 6.9026-3.9623 9.3046-7.273 3.6329-2.9904 8.8127 0.15182 9.6843 4.2762 0.2141 3.7283 1.5712 4.9009 4.9798 5.9846 4.5697 3.1272 7.4285 8.2362 6.138 13.865 1.3681 3.8568 0.2437 8.0377 0.29979 12.08 9.8e-4 4.5043-1.9707 8.7306-1.4624 13.259 0.4902 5.2006-3.804 8.857-3.3225 13.954 0.22565 5.5359-0.13746 11.628-4.6758 15.573-2.4064 2.1414-5.493 4.0333-8.7774 4.2145zm-15.911-74.353c1.9797-0.8282 1.7038-0.47919 0 0zm14.585 38.562c2.574-3.6466-3.1666-3.9011-3.5355-1.6717 1.0577 0.75826 2.4497 0.92652 3.5355 1.6717z" clip-path="url(#p)" fill="#afc785" fill-opacity=".4196" style="mix-blend-mode:lighten"/>
<path d="m183.01 635.13c-3.6489-0.38758-7.5689-0.49012-10.747-2.4615-4.9955 0.43865-8.9641-2.5515-9.8357-7.613-1.6054-3.868-1.793-8.3897 0.0891-12.055-0.23791-5.9111-0.38932-11.875-2.6053-17.332-0.26786-8.1517-3.1396-16.456-0.77351-24.526 0.58379-3.5443 5.0117-6.0129 5.4197-8.8051-0.10417 4.4905 1.7092-2.8313 1.511-2.5366 2.3986-4.4075 8.7841-2.3822 10.991 1.1811 3.025 4.9977-0.1446 10.751-0.83261 15.954-0.66814 6.019 0.0153 12.126-0.36662 18.191 0.6576 4.9688-1.1611 10.659 2.0346 15.046 2.7321 2.7658 6.3411 4.5314 8.9336 7.341 4.5196-1.3778 10.076 1.4838 10.602 6.4878 2.4185 3.1581 0.38671 8.206-3.7088 8.4398-2.1959 1.3979-7.7733-1.8488-7.2475-0.47524 1.3796 1.5114 8.4812 0.90022 3.5275 2.279-2.2842 0.58221-4.6472 0.73868-6.9912 0.88529zm-17.353-74.249c-0.64141 1.2516-1.3646 1.1563 0 0zm22.302 60.696c0.95671-0.1225-0.10857-0.44691 0 0z" clip-path="url(#q)" fill="#afc785" fill-opacity=".4196" style="mix-blend-mode:lighten"/>
<path d="m244.6 635.08c-3.8677-0.27407-5.0543-5.0277-4.9325-7.7721-5.2472 1.1108-3.867-6.3693 0.26573-6.9271 2.4618-2.4021 7.3249 2.814 5.387-2.2884-0.93082-5.075 1.6951-9.7624 2.3743-14.654-0.51539-6.1236-0.48034-12.316-0.16219-18.44-1.1185-6.2302-2.1007-12.488-2.2406-18.828 0.0239-2.047-1.2348-8.112 2.135-4.453 1.3118 2.7733 4.92-0.33877 3.7221 3.8194 0.61637 0.57855 2.431-2.1576 2.4336 0.83874 1.4024 0.0103 4.1689 0.49102 5.1354-1.7925 2.1936 0.92639-0.33097 7.0051 2.2142 7.5157-0.6663 9.2952-2e-3 18.674-0.97045 27.97-1.9334 3.7641-8.4628-1.6659-2.6298-2.0697 2.0928-2.0636-1.4165-7.5909-1.94-2.6915-1.4744-1.0699-1.7192-6.4585-2.5422-5.885-0.0738 4.4967 0.46162 9.0086-0.2487 13.494-0.62 4.4053 0.61657 8.865-0.65037 13.217-0.78647 1.8302-0.96748 5.7737 0.14927 1.5984 0.79937-3.5917 1.1165-7.6265 3.8248-10.393 1.3137 1.2376 0.18085 5.3611 2.9678 3.1964 2.4418 2.5224 3.8834 6.865 2.7865 10.427-0.31805 3.2329-0.98026 5.9164-4.2205 7.1378 0.31749 3.1295-3.7021 2.4747-2.8444-0.29113-1.0756 3.546-4.9637 4.3007-7.4508 6.2871-0.78046 0.49153-1.6675 0.78615-2.5634 0.98349zm-1.7109-6.999c1.0906-0.53369-0.0789-1.1059 0 0z" clip-path="url(#r)" fill="#afc785" fill-opacity=".4196" style="mix-blend-mode:lighten"/>
<path d="m185.02 645.63c3.7182-7.6698-9.5637 0.77687-1.1874 5.1099 3.078-1.1767 0.39695-9.9249 2.7799-13.835-5.5051 2.3631-3.4403 22.454 0.31359 11.079-1.0969-5.6531 5.1504-15.891-1.0217-6.6339-4.9074 3.797-2.1628 16.65 0.48867 5.6762 2.0258-5.3863 3.2212-12.23-0.76303-3.0981-3.8562 6.9278 3.348 11.22 2.3001 2.1283-0.35799-10.19 9.6885-8.7001 10.568 0.1783 6.3694 4.0372-2.2936-13.045-0.96877-1.2448 0.17277 10.175 3.5179 1.3451-0.30458-2.7072-2.028 4.3637 3.9905 17.01 1.4855 5.7416-3.8999-9.8187-0.16637 10.271-0.48648-1.4703-1.6956-6.1381 0.31722 9.8453-1.7628-0.98062-1.8566-0.0333 1.0921 10.953 0.75874 3.9673-1.9736 5.0521-0.52558 9.2627 1.0013 2.7976-4.7188-3.7026-1.2818 7.1002-4.3134 3.0215 1.4038 9.9986 9.5609-10.49 1.2314-2.68-3.5225 6.5327 5.3685 1.946 0.0865 2.3076 1.6257 10.605 10.579-8.3914 0.28655-6.5717-2.2809 10.967 7.601 1.689 3.0552-4.2198-10.738-4.7303-0.4627 18.454 2.3402 5.1347 2.6141-10.565-11.024-6.7553-5.4617 1.7314 10.308 8.6015 2.0218-17.624-0.66875-3.9892 0.30006 7.0778 8.4489 7.169 5.9622-0.37383-0.40368-8.913-8.5368-6.0474-5.0658 1.447 3.6646 12.7 8.3157-6.8779 2.2406-5.6502-2.1971 11.206 6.7782 4.3618 1.5859-2.4484-7.1425-13.052-19.555 4.8966-12.944 11.506 0.56168-3.2813 7.5051-19.367-0.4903-11.643-5.1178 4.7814-2.3598 16.722 1.1526 5.2838 7.422-5.9948 0.10927-14.789-2.8364-4.1594-1.795 5.0264 1.1016 13.284 2.0219 3.1226 4.1444-4.974 0.0566-14.489-3.1264-4.9919-4.1093 3.8899 1.9022 16.479 3.446 10.407-2.4336-0.2019-3.0464-8.9917-1.703-3.9446" clip-path="url(#s)" fill="#cb670e" fill-opacity=".4196" style="mix-blend-mode:lighten"/>
<path d="m233.97 629.45c2.1034-4.4554-5.0613 1.2585 0.79172 2.3158 7.9478 12.405-6.8971-14.722-3.0445-1.4234 3.002 6.3829 6.9712 5.9987 2.4313-0.32623-5.4892-6.5305 6.7584 19.178 4.8222 4.651-2.3167-9.9219-5.1379 0.86883-0.38678 2.8585 3.1666-5.0146-5.4365-11.013-2.4848-1.9428-1.5428 4.197 3.0028 14.731 3.0725 4.7018-2.8968-13.538-2.27 15.071-1.1521 0.77336 0.59271-6.9683-3.8863-7.9199-2.45-0.40125 4.2365 14.386-2.0391-21.55-1.6593-4.8972-0.77419 5.7881 3.4352 16.917 2.4434 4.5398-3.5136-11.56-1.5362 17.359-0.66238 2.4724-1.1817-5.5414-2.9597 13.653 1.1106 3.3637 2.2694-5.2437-1.3117-10.541-1.5435-7.4175 0.72671-7.037-4.285-10.853-2.7369-1.5508-2.4514 5.4012 5.382 11.815 2.3608 2.8614-2.6984-9.7266-2.4348 6.3801-1.8846 0.92683-1.7196 8.3262 8.6857-7.3023-0.68982-5.9188-5.6242 5.9679 5.9531 14.448 3.4773 3.3099 1.1267-8.1402-6.6565-9.0026-3.8993-0.28735 2.3851 11.37 9.6013-4.8143 3.2397-0.96318-2.7428 3.8824-1.4282 20.283 2.3769 8.6883 2.3994-12.716-10.769-2.7262-4.3288 4.0359 8.7831 3.8329 2.3444-24.323 0.14865-10.146-2.28 6.0045 5.1463 13.687 3.9504 3.7653 1.97-6.2532-5.5646-20.121-4.036-6.3751-1.0089 4.9666 5.5369 15.456 5.7225 5.1316 0.74078-6.7536-4.204-13.327-4.4176-3.0706-2.9239 7.441 6.5629 13.287 5.5582 2.7202 2.2696-7.1233-6.0172-9.0562-4.5399-1.0263 3.3411 16.448 6.6429-14.761-0.27777-7.7912 0.80559 10.602 9.3284 2.8176 3.3455-2.9316-10.101-7.9359 1.2556 17.254-0.39405 4.6273 0.5573-6.4177-10.563-12.314-7.1588-2.5565 4.5812 9.2236 10.287 2.4026 3.3508-3.1563-10.05-6.0345 7.5624 20.563 4.5144 4.4179-0.63216-1.5972-2.7606-7.6424-4.9698-3.9791z" clip-path="url(#t)" fill="#cb670e" fill-opacity=".4196" style="mix-blend-mode:lighten"/>
<path d="m215.89 634.34c5.2682-3.4847-7.333-4.8355-3.659 2.3293-0.20023 6.2011 13.206 11.646 4.4298 3.9417-4.3918-3.6302-3.7734-10.377-0.88544-1.9517 1.855 10.338-5.1857-14.559-1.0089-0.9094 4.5251 12.251-2.8902-10.643 1.5982 0.8716-1.2328 4.4844 5.882 12.561 3.8947 3.3252 1.0659-7.912-12.024-15.099-7.7245-2.7234 7.1173 15.031 7.9111-13.447-1.0874-7.6718-6.3628 9.4288 13.405 18.705 7.0163 4.0607-4.9416-8.7866-11.736-1.057-5.5485 5.3795 7.4167 8.8593 7.0718-0.73688 1.9672-5.2044 1.8081-4.5889-1.5915-3.3381 1.0075-1.4473zm2.599 12.714c7.1349-2.2719-6.0242-18.519-0.51113-5.5165 4.6052 8.9347 5.5833-4.2855 1.5344-2.4473 0.81598 10.999 5.7885-4.0349 0.43642 1.1707 3.5445 7.0001 4.9323-2.9697 0.33049-0.17635 4.2521 7.3857-5.0348-14.428-5.1509-3.3604 3.6718 10.833 8.6105-0.6393 0.7982-1.9885-2.0194 5.9026 11.454 13.162 4.8747 4.1687-0.86167 8.7588 7.3628 4.2169 1.2295-0.92583-8.9203-0.74776 4.479 14.102 0.79322 1.1851-4.7143-8.9938-7.8206 7.1327-1.175 4.3149 2.4828-6.091-10.103-13.068-5.078-3.0084 0.68457 2.1816 1.2041 4.4108 1.9182 6.5836" clip-path="url(#u)" fill="#cb670e" fill-opacity=".4196" style="mix-blend-mode:lighten"/>
<path d="m222.27 612.8c-3.6774-1.526-3.7983-6.5168-6.6126-8.3958-2.14-1.4117-5.7194-1.749-5.3515-5.4129-1.5824-3.0186-1.6735-6.3618-0.90461-9.6153 0.42448-4.0654 3.1981-7.4915 3.3864-11.611 1.2844-4.0509-1.491-7.5568-1.7689-11.617-2.0681-6.4918 0.16907-13.321-0.17859-19.963 2.0837-0.48666 1.5832-8.5727 3.13-4.3704-0.7331 1.6851 2.6426-4.6782 2.4358-0.44816 1.3439 2.4236 4.7866 5.3458 6.1128 6.4082 3.8882-2.1558 7.3586 3.4554 6.5948 6.9992 0.6203-1.2981 3.9883 2.0386 2.1718 3.9666-0.23766 4.8398-0.35704 9.7039-0.92837 14.517-0.0576 2.7391-2.2622 10.285-4.7923 4.9047-1.4002 2.1549-6.5455 1.8491-3.7694 5.5215 0.43629-2.6965 3.5445-2.5485 4.6915-3.6112 0.67831 1.3346 0.81467 4.3329 2.0013 2.208 2.0447 3.9966 0.76464 8.8239 0.26744 13.092-0.44784 4.4885-1.035 9.1103-2.0119 13.17-1.9859 0.38932-2.5328 2.5438-4.4736 4.258zm-1.3022-3.5259c3.6156-1.4373 2.5951-6.1367 2.7841-9.2072-0.18728-3.4644-0.85188 4.6141-1.3327 6.2055 0.0502 5.2762-2.739-3.4422-2.1352 1.1774 0.1797 0.6246 0.40052 1.2387 0.68383 1.8243zm-5.729-9.0469c1.0089-1.0865 0.0221-3.1561 0 0zm8.7451-12c0.15407-1.882 1.7803-9.7026 0.56823-4.2158-0.27823 1.3913-0.4785 2.7994-0.56823 4.2158zm-7.5952-11.971c0.72853-1.5426-1.5733-5.4837-0.49065-1.6737l0.18917 0.84614zm2.4756-23.928c1.206-1.94-2.4191-4.073-0.29663-0.88839l0.15406 0.44229z" clip-path="url(#v)" fill="#00733b" fill-opacity=".4196" style="mix-blend-mode:lighten"/>
<path d="m259.07 622.43c-2.8062 0.10862-5.172-0.44972-6.0914-3.6216-1.8223-0.22944-3.7783-0.36354-4.7986-2.5722-2.7887-0.84127-3.0562-4.7642-1.2288-6.762 0.64307-2.9372-0.0307-6.4448 0.32396-9.5942 0.63941-4.0042-0.29873-8.8978 1.431-11.698 0.95603-1.0538 3.4781 2.1427 2.5213-0.67754-0.0489-1.2523-0.78488-7.4808-0.70422-3.4014 0.7977 1.8461-1.2819 5.627-2.0225 1.9097-1.648-3.2011-3.5402-6.4285-3.215-10.198 0.0292-4.1804 0.7783-8.32 0.96352-12.488 1.1152-2.5278 2.598 2.8044 3.5033-0.3003 1.3116-0.91433 2.8774 0.55253 3.8249-1.387 0.0986 1.5952 1.3704 5.7636 2.9576 3.6033 1.4473 0.71527 1.6651 3.5327 3.2719 2.9134 1.0116 2.6808 0.2374 5.6336 0.23805 8.4232-0.30689 3.4694 0.96146 6.8839 0.34842 10.369-0.62526 3.6687-1.7197 7.2416-1.7038 11.012-0.55316 2.7233 3.3978 3.721 2.8959 6.9893 0.77646 4.5798 0.10753 9.2772 0.97691 13.847-2.2682-0.38824-1.2531 3.6966-3.4926 3.6328zm-6.0249-7.5366c0.17462-0.60997-0.23463-0.16086 0 0zm1.8926-18.677c-0.14447-2.8584-0.75585-5.7363-0.0704-8.5486-0.84483 1.8973-0.50473 5.9164 0.0704 8.5486zm-4.3638-30.505c0.41194-0.90745-0.1181-0.93548 0 0z" clip-path="url(#w)" fill="#00733b" fill-opacity=".4196" style="mix-blend-mode:lighten"/>
<path d="m186.34 655.5c-5.8781-0.6875-5.4911-8.2866-3.8629-12.461 0.48563-5.4808 6.3888-10.025 10.28-4.4784 3.5914-0.0483 5.85-2.2907 9.588-2.4013 4.734-1.6368 9.5557-8.5779 14.435-4.8723 5.215-0.36026 10.319 3.5115 10.387 8.8613-1.3024 2.0619-0.18926 8.0568 1.0425 3.5156-0.0349-4.7913-1.233-10.163 0.83175-14.558 4.4302-3.964 11.446 0.97797 11.035 6.4217-0.42658 4.7507-0.84171 10.679-4.5801 14.045-4.3038 0.81192-8.0623-3.7257-12.794-2.6026-5.3181 2.8123-7.4183-4.9816-10.549-7.7339-3.1062-7.5529-11.026 0.24532-8.4691 5.6856 0.35216 4.8991-3.965 9.9096-8.8268 10.545-3.0746-0.23537-5.438-1.6849-8.5172 0.0332zm5.9282-2.7656c-0.17126-0.85695-0.75282-0.12368 0 0zm-6.2783-1.4356c1.4127-2.7381-3.1271-1.479 0 0z" clip-path="url(#x)" fill="#fea" fill-opacity=".4196" style="mix-blend-mode:lighten"/>
<path d="m267.83 564.13c-2.2333 0.36142-9.4776-1.3173-3.7924-2.6649-6.1315-0.55304-12.176-1.9155-18.355-2.2527-2.6212-3.3239-5.9719-3.4377-9.8215-4.9164 1.5022-1.3456 1.1406-2.6472-1.5216-2.963 5.7406-4.1081-7.0346 0.17439-9.1254-2.9404-3.3318-2.1682-6.6485-5.5502-5.557-8.2928-7.1363-1.8722 0.96678-6.8303 4.8335-5.1988 5.77 0.25423 11.558-1.1036 17.244-0.44518 6.995 0.42819 14-0.37351 20.979 0.18073 5.1783 0.13298 9.6288 2.551 14.027 5.0548 5.0333 3.8282 10.223-0.085 15.031-1.4688 5.3623 0.7923 11.686-2.2684 16.449 0.60981 3.0929 3.9586-4.1886 10.671 1.6098 13.187 3.8256 1.0606 12.846 2.0373 10.532 7.1599-4.8864 2.3103-10.952 0.57449-16.256 2.0414-7.1173-0.12173-14.355-0.68479-21.463 0.5206-5.0187 0.33381-9.8032 2.159-14.814 2.3891zm37.184-10.532c3.401-0.15986 0.54929-1.8548-0.67784-0.0519zm-61.718-0.0879c7.094-0.63473-10.658-0.0663-1.2857 6e-3zm26.905-1.3594c4.8618-0.1291 3.3521-1.7983 0 0zm0.0102-3.8628c2.7543 0.24258 4.4527-3.132 0.42846-1.444-3.0471 0.0964-3.6918-0.0201-0.42846 1.444zm-45.861-1.6655c2.1637-0.0809 10.853-0.1412 8.6532-0.80176-2.885 0.26002-5.7731 0.4901-8.6532 0.80176zm37.279-1.3052c-3.1489-1.4162-4.2692-0.29997 0 0zm26.166-1.6201c1.1668-1.0516-1.2905 0.0239 0 0zm-60.381-0.42187c0.64344-2.7102-8.4821-0.81826-2.2167-0.18725l0.96985 0.11161zm28.638-0.16113c2.588 0.0445 12.654-1.8845 5.4091-1.1175-1.8359 0.11446-3.7564 0.21517-5.4091 1.1175zm50.225-0.0996c-0.62598-2.44-3.8984-2.4958 0 0zm-51.224-0.13477c-0.0968-0.95304-1.6424 0.13424 0 0zm-5.6938-2.8667c0.12339-0.24517-0.65166 0.15918 0 0z" clip-path="url(#y)" fill="#afc785" fill-opacity=".4196" style="mix-blend-mode:lighten"/>
<path d="m188.9 661.63c-8.6602 0.027-14.181-11.925-9.7954-19.975-0.29924-1.7542 0.37358-2.913 1.3374-3.627-6.1813-1.5536-13.888-3.9724-19.333-8.2412-1.9394 0.35405-2.1654-0.55978-1.7432-1.377-0.0582-0.0354-0.11172-0.0943-0.16699-0.14648-0.361 0.40904-0.74737 0.80879-1.1792 1.1924 0.32934-11.002 1.355-22.119 0.84668-33.193 1.0715-10.028-3.1817-21.282-0.97266-30.466-0.45527-0.73499-0.45392-1.4259 0.39551-1.4238 0.0116-0.0355 0.0175-0.0729 0.0293-0.1084 0.0282 0.0405 0.0528 0.0837 0.0806 0.12451 0.35789 0.0205 0.82978 0.13716 1.4722 0.41895l-0.59033-0.83936-0.0117-0.50537c5.4738-3.131 11.635-5.1936 17.336-8.083-0.10089-0.98336 0.0804-1.625 0.81738-0.41748 2.3885-1.2569 4.6922-2.6637 6.8042-4.4033 9.0219-4.8946 17.268-11.478 26.281-16.022 0.15355 0.47498 0.2332 0.93356 0.25342 1.377 0.51199-0.25887 1.2095-0.46075 2.1226-0.59179v1e-3c6.3336 7.5096 17.512 12.935 26.394 18.23 7.0806 6.585 19.336 4.0874 24.753 12.212-1.1211 14.209-0.37169 28.495 1.1162 42.647-0.81023 4.916 6.4891 22.494-1.8662 18.929-0.0284-0.16867-0.0538-0.33814-0.082-0.50684-0.0317-4e-3 -0.0631-8e-3 -0.0937-0.0132-0.0251 0.0488-0.0528 0.0984-0.0806 0.14795-0.17445 5.3678-13.383 8.4306-19.014 10.666l-0.13331-0.11866c-0.15902-4e-3 -0.27798-0.0391-0.36181-0.0981 7e-4 0.0808-1e-3 0.16328-1e-3 0.24463 0.27281 3.7612-0.50447 7.69-2.1182 10.85-0.32419 0.47164-0.67801 0.91357-1.0518 1.3315-3.1977 7.6233-19.717 10.14-22.378 2.2471-1.5544 0.41038-1.9901-0.20728-1.8691-0.88184-1.7679 1.7891-6.0033 0.51358-9.2241-0.28564-0.35093-0.067-0.69571-0.1475-1.0298-0.24463-1.3326-0.29321-2.3813-0.40939-2.8154-0.019-0.0421-0.57837-0.0189-1.0605 0.06-1.4619-0.77119-0.7474-1.2411-1.7446-1.2246-3.0513-0.29425 0.0177-0.7209-0.0467-1.3184-0.22998-0.11829-0.453-0.16301-0.79702-0.15821-1.0591-2.5504-0.90716-4.2451-2.4948-2.7583-3.416 0.0915 8e-3 0.18155 0.0182 0.27246 0.0278-0.61772-0.38858-1.1314-0.81469-1.5483-1.2686 0.0569 0.34496 0.1039 0.70435 0.13623 1.084-3.2326-5.0183-9.1155-5.2929-12.441-1.8398-0.0366 1.0538-1.1765 2.3555-1.6523 3.0982-0.15698 0.23522-0.30044 0.46853-0.43799 0.70166-0.27114 1.0178-0.4051 2.1526-0.36474 3.4014 1.3927 12.854 10.183 0.40813 13.812-3.3457-0.20286 0.0437-0.43584 0.0839-0.71192 0.11865-2.2275-2.671 4.0676-0.86706 0.75586-0.12744 0.21778 6.3532-5.8334 11.809-10.652 11.763 0.16311 0.20201 0.34007 0.46255 0.53613 0.81006-0.10478 0.19831-0.20406 0.36005-0.30029 0.50537 2.798 1.7122 6.4561 2.3088 9.8408 1.2407 5.1755-5.3589 7.4612-17.438 6.731-5.9868-0.0325 0.34937-0.0938 0.69437-0.17578 1.0342 7.7986-6.6873-0.53895 9.4085-7.2598 7.6699-0.56029 0.24821-1.1247 0.45844-1.6875 0.62548-1.2376 0.45804-2.4363 0.67173-3.5801 0.6753zm-5.3511-6.3428c0.02-0.13042 0.0488-0.25179 0.0894-0.35742-0.23056-0.0496-0.45659-0.11319-0.67675-0.19336 0.1879 0.19066 0.38375 0.37395 0.5874 0.55078zm44.117-2.833c2.1925-6e-3 4.3963-0.54224 6.3779-1.5015 5.5893-4.0667 6.4798-13.181 5.1299-20.121-3.6817-2.98-10.43-3.5439-12.334-8.2632 1.8683 0.93946 4.0359 1.2015 6.0498 1.8662 1.75-1.9838 3.8638-3.6445 6.1963-4.8911 0.76596-0.36005 1.4414-0.65626 2.042-0.89941-3.8911-1.3652-7.2611-3.1332-9.1978-5.9824 4.051 1.4358 8.0709 2.9607 12.138 4.3521 3.6651 2.3875 15.461 3.3602 18.62 6.6797-1.6884-10.292-3.176-20.631-3.6694-31.056-2.044-8.9498 3.1622-19.288-1.6406-27.205-4.0282-1.0281-7.9834-2.3824-11.852-3.9888 0.22778 1.29 0.33047 2.9922 0.20508 4.6802-1.3332 16.964 5.1679 34.218 0.0542 50.826h-1e-3l-0.9375-0.375-0.44532-0.88769c3.1447-17.296-2.2465-34.689-1.1221-52.055 0.13875-1.3068 0.30191-2.248 0.47754-2.9429-3.7401-1.6387-7.3842-3.5275-10.939-5.5708 0.94492 1.4913 1.2477 11.331 0.13037 14.868-1.9749 13.459-2e-3 27.863-4.9175 40.717 0.91247 0.38 1.803 0.79376 2.6528 1.2642-0.94459 0.16559-2.0332 0.23261-3.2051 0.20801-0.0182 5e-3 -0.0361 0.0113-0.0542 0.0161-0.12162 0.2832-0.24161 0.5666-0.3706 0.84814l-0.77783-0.92138c-7.3514-0.52821-17.165-4.46-17.657-11.616 4.0283 5.8974 11.079 7.1606 17.404 9.4292 3.6833-16.116 3.0529-32.921 5.0391-49.296 0.53201-3.909 1.026-5.5311 1.437-5.7012-3.5378-2.0469-6.9874-4.2418-10.312-6.5654-2.8424-1.483-10.472-6.2374-12.195-9.6196-2.7432 4.4805-11.991 7.2447-16.112 10.302-0.89841 0.61379-1.8011 1.2234-2.7041 1.8325 0.23097 0.13142 0.47856 0.30576 0.75293 0.55225-0.57375 13.303-0.0368 26.771 1.1367 40.104 1.3516 4.1982-0.62919 16.841 0.0674 18.202 6.073-2.9644 19.908-13.027 11.808-3.6211-3.0156 1.5779-6.0456 3.1295-9.085 4.6655-5e-3 7e-3 -0.0106 0.0152-0.0161 0.022 4.5169 4.1435 9.9349 6.6138 15.182 9.6152 8e-3 0.0894 3e-3 0.17102-7e-3 0.24903 5.2144-2.9391 10.494-5.4469 15.914-6.189-1.4203 1.6516-3.2076 2.9491-5.1094 3.9888-6.7084 2.5806-12.834 6.2991-19.05 9.8555 1.529-0.15018 3.107 0.18425 4.5615 1.1968 0.47312 0.047 0.89597 0.15764 1.2744 0.32373 0.12824-0.54332 0.89962-1.6564 2.543-3.6123 4.3455-4.1049 10.076-4.1783 14.492-1.8735-0.51404-1.061-0.0522-3.8008 1.6157-0.84522-0.39477 0.74733-0.72871 1.0949-0.99902 1.1909 4.9898 2.9425 8.0247 9.0026 4.8384 15.574-0.8359 6.6381-6.8766 8.9536-12.157 8.1606 1.0986 0.81221 2.1202 1.7084 2.8579 2.5942 1.8194 0.97651 3.8398 1.4218 5.8726 1.4165zm-13.623-3.2285c0.26781 6e-3 0.52688-4e-3 0.77637-0.0322-2.6209-2.5863-2.9843-3.6696-2.1943-3.7939-1.368-1.4468-2.1058-3.3419-1.7739-5.5957-0.35407 1.2139-0.83318 2.0739-1.2891 2.2104-0.79096 2.8533-3.3793 3.6812-5.9956 3.5112 0.91395 0.60008 1.8302 1.3238 2.7642 2.0083 2.2842 0.33289 5.3227 1.6362 7.7124 1.6919zm5.272-3.1494c6.5497-0.0316 13.728-9.1994 8.8564-15.989-2.6367-8.8872-15.768-0.50952-18.908 0.14062 1.7401 1.2435 2.2379 3.8846 2.1138 6.356 0.0898 0.13591 0.18171 0.28468 0.27978 0.45849-0.13292 0.25164-0.25733 0.45366-0.37646 0.6211-0.0346 0.28067-0.0763 0.55634-0.12452 0.82324 0.16628-0.5266 0.38735-1.07 0.6709-1.6289l0.20801 2.2456 0.64014 2.124c1.6105 3.4754 4.0772 4.861 6.6401 4.8486zm-14.093-3.3765c1.2739 0.0161 2.4942-0.25873 3.6782-1.0972-0.16763-0.30106-0.31665-0.76538-0.43652-1.4297 4.9828-13.562-17.477-9.7326-10.118 1.3506 2.4916 0.3293 4.7581 1.1494 6.876 1.1763zm-6.4673-2.6558c-0.27775 6e-3 -0.67745-0.057-1.2305-0.21826-0.13301-0.50672-0.14596-0.84984-0.082-1.0693-0.0545-0.0195-0.10949-0.0378-0.1626-0.0586 1.8964-1.6219 4.1288-2.8981 6.5508-3.5391 11.312 0.24907 1.2979 4.7581-4.8223 3.9595 0.36692 0.43196 0.4669 0.9106-0.25341 0.92578zm-16.641-2.7964c0.55441-0.14487 1.0898-0.19289 1.5176-0.16406 0.60934-0.49017 1.2525-0.92529 1.9131-1.2964-5.7232 0.0505 7.189-6.4317 10.793-6.7383 4.373-2.1843 8.744-4.9567 13.156-7.5102-3.943 0.0877-14.167-4.9064-14.584-10.213-0.0992 0.0344-0.20613 0.0686-0.32226 0.10254-0.55589 0.27965-1.1133 0.55659-1.6699 0.83496-0.30688 0.34671-0.66702 0.54006-1.0239 0.50976-1.9274 0.96057-3.8584 1.9147-5.7935 2.8608 4.07 1.6381 8.0427 3.7296 12.33 4.9116 7.8151 3.2246 5.576 6.7667-1.4004 2.5254-2.7925-2.0461-9.6848-4.252-13.567-6.1479-7.1243 3.4551-14.293 6.8209-21.485 10.125-0.99078-0.45644-1.0747-2.073-4e-3 -2.4697 5.3843-2.1379 10.55-4.8096 15.725-7.4824 0.31671-15.084-2.0422-30.015-1.7241-45.117 0.33592-1.6206-0.12551-7.5198-0.0132-11.805-4.0139 2.0925-8.1676 3.9145-12.543 5.2822-0.97969 1.9235-2.2795 2.2699-3.4058 1.9541 3.7478 9.0494 1.191 22.439 2.7232 32.581-1.5491 8.1526 2.1585 18.326-1.7915 25.765-0.0672 0.51364-0.14822 0.95548-0.24316 1.3096 0.0211 0.0562 0.0363 0.10685 0.0513 0.15674 3e-3 5e-3 7e-3 0.01 0.0102 0.0146 0.51689 0.18854 1.0334 0.38143 1.5498 0.57715 6.3957 1.5257 17.926 4.1627 19.803 9.4336zm12.76-0.78222c6e-3 -1.7028 0.76466-3.4359 1.9731-4.8648-1.9052 0.99737-3.8405 1.9379-5.8198 2.7949 1.5026 0.13359 2.8559 0.77865 3.8467 2.0698zm48.577-0.58301c0.24783-0.17261 0.4973-0.3427 0.75-0.50977-2e-3 -0.0869 5e-3 -0.18202 0.0249-0.28857 3.0326-4.9861 22.265-7.619 15.053-10.667-4.3104-2.1447-9.9911-3.2934-15.189-4.8252-1.8164 1.955-6.23 4.8307-9.9111 5.2544-0.0138 0.0208-0.032 0.0444-0.0469 0.0659 0.0722 0.0331 0.14529 0.0646 0.2168 0.0996 3.22 0.91937 5.5137 2.8897 7.0107 5.3994 1.2324 0.69661 1.895 2.8329 2.0918 5.4712zm-64.104-19.638c0.56173-0.28922 1.1247-0.57557 1.6875-0.86279-0.47796-0.51071-0.49279-0.98142 0.16113-1.3975 0.55865 0.14094 1.1107 0.30469 1.6611 0.47754 2.5373-1.2741 5.0946-2.5072 7.6992-3.6357 0.38529-14.483-1.8403-28.998-1.6875-43.525 0.50118-2.6366-0.6861-11.345 0.20507-15.018-3.297 2.1876-6.6382 4.3089-10.078 6.2476-0.0669 10.438 0.0733 20.885 0.81445 31.299-0.73785 8.4914 4.1525 19.252-0.75732 26.355 0.1052 0.0176 0.20384 0.0369 0.29443 0.0586zm28.056-15.318c-0.41318 0.0157-0.79055-0.20415-1.0356-0.54053-0.17605 0.14964-0.34809 0.30062-0.53613 0.44532 1.0255-8.4062 2.3929-17.179 1.8809-25.939 1.5195-9.1262-2.1098-20.138 0.40429-28.648-1.3515 0.10528-1.1381-4.2903 2.644-3.8599-0.17255 0.45059-0.34052 0.84184-0.50537 1.2026 2.234 6.481 0.147 18.292 0.96386 26.467-1.5362 8.594 2.4947 19.728-2.2148 27.294 0.14932-0.0235 0.29837-0.0473 0.46142-0.0645-0.3117 2.6846-1.2519 3.6123-2.0625 3.6431z" clip-path="url(#z)"/>
</g>
</g>
</g>
</svg>
